<?xml version="1.0" standalone="no"?>
<!DOCTYPE svg PUBLIC "-//W3C//DTD SVG 20010904//EN"
 "http://www.w3.org/TR/2001/REC-SVG-20010904/DTD/svg10.dtd">
<svg version="1.0" xmlns="http://www.w3.org/2000/svg"
 width="450.000000pt" height="468.000000pt" viewBox="0 0 450.000000 468.000000"
 preserveAspectRatio="xMidYMid meet">
<metadata>
Created by potrace 1.10, written by Peter Selinger 2001-2011
</metadata>
<g transform="translate(0.000000,468.000000) scale(0.050000,-0.050000)"
fill="#000000" stroke="none">
<path d="M2 9225 l1 -135 28 110 c35 142 35 160 -1 160 -24 0 -30 -28 -28
-135z"/>
<path d="M129 9291 c-16 -83 -1 -111 60 -111 34 0 49 14 57 55 6 30 17 71 25
90 11 29 2 35 -58 35 -65 0 -72 -6 -84 -69z"/>
<path d="M451 9316 c-40 -58 -40 -116 0 -116 35 0 189 117 189 143 0 40 -158
17 -189 -27z"/>
<path d="M707 9290 c-31 -38 -82 -101 -113 -139 -69 -84 -69 -177 -1 -187 31
-5 54 12 80 55 19 33 42 61 50 61 31 0 157 188 157 233 0 78 -102 64 -173 -23z"/>
<path d="M2720 9339 c0 -14 -31 -17 -90 -8 -126 19 -196 -16 -272 -134 -76
-119 -111 -118 -156 3 -43 117 -89 124 -254 37 -153 -79 -170 -111 -95 -171
88 -70 34 -108 -71 -50 -90 51 -121 54 -171 17 -54 -39 -80 -251 -41 -327 38
-73 38 -146 -1 -202 -45 -64 -75 -54 -40 14 27 52 27 61 -2 84 -57 48 -119
-82 -64 -137 23 -23 -83 -105 -137 -105 -52 0 -86 -88 -86 -222 0 -146 10
-129 -245 -430 -63 -75 -115 -143 -115 -152 0 -9 -14 -16 -31 -16 -45 0 -58
54 -21 91 40 39 40 57 3 88 -46 38 -105 6 -155 -85 -51 -92 -102 -110 -112
-39 -4 29 4 45 22 45 63 0 86 61 36 98 -40 31 -44 45 -31 128 12 81 9 94 -20
94 -50 0 -21 120 41 167 64 48 62 109 -5 134 -71 27 -122 7 -158 -62 -16 -32
-52 -73 -79 -91 -84 -55 -110 -260 -44 -344 34 -43 29 -125 -17 -274 -23 -77
-39 -151 -34 -165 26 -76 142 44 152 157 9 94 33 129 33 48 0 -93 45 -126 159
-115 180 18 162 -133 -25 -201 -92 -34 -373 -81 -389 -65 -21 20 -85 -32 -85
-69 0 -58 90 -106 227 -122 154 -18 173 -44 173 -231 0 -209 -57 -228 -71 -22
-10 146 -55 185 -121 105 -38 -47 -47 -74 -38 -125 8 -42 4 -65 -11 -65 -53 0
-2 -66 70 -91 43 -15 86 -41 96 -58 9 -17 31 -31 48 -31 19 0 27 -11 20 -29
-34 -89 -36 -171 -5 -183 64 -24 39 -93 -28 -78 -86 19 -101 -35 -30 -105 155
-154 219 -265 191 -332 -14 -35 -30 -87 -35 -117 -27 -144 -345 -121 -402 29
-15 40 -33 56 -58 51 -50 -9 -56 -87 -13 -152 20 -30 50 -81 66 -114 17 -33
60 -78 95 -100 57 -35 63 -48 53 -105 -9 -48 3 -95 46 -179 46 -91 51 -115 28
-122 -147 -49 -145 -193 4 -276 50 -28 -133 -594 -187 -577 -77 24 -241 -52
-234 -109 5 -47 14 -52 91 -52 79 0 89 -7 167 -110 45 -60 90 -113 100 -117
11 -4 32 -37 47 -75 16 -37 38 -68 49 -68 74 0 94 -240 37 -419 -29 -89 -75
-73 -75 25 0 99 -175 206 -264 161 -30 -15 -73 -27 -96 -27 -49 0 -69 -42 -52
-111 18 -69 61 -81 123 -32 69 54 126 32 159 -63 14 -41 42 -97 63 -127 60
-85 62 -90 85 -247 18 -118 33 -159 72 -194 65 -58 67 -111 4 -95 -84 21 -142
-49 -143 -173 -1 -134 64 -168 112 -59 30 67 97 84 97 24 0 -44 -44 -85 -140
-133 -38 -19 -85 -53 -102 -75 -18 -23 -63 -51 -99 -63 -48 -16 -72 -40 -88
-87 -12 -36 -45 -86 -75 -110 -132 -112 -63 -211 93 -135 66 32 95 61 119 121
17 43 41 79 53 79 11 0 56 36 99 80 43 44 91 80 106 80 102 0 172 141 172 348
0 181 -14 234 -81 298 -21 21 -37 63 -37 101 0 37 -10 117 -23 179 -21 106
-19 118 38 238 106 220 101 434 -10 507 -25 17 -45 48 -45 70 0 25 -26 56 -68
80 -130 77 -130 114 -4 500 132 403 129 381 48 449 -59 50 -56 88 9 90 58 1
56 98 -4 231 -63 138 -71 309 -16 309 63 0 238 176 224 224 -6 19 3 61 20 94
49 96 38 159 -49 274 -93 123 -93 124 -39 216 44 74 29 152 -29 152 -20 0 -23
20 -11 83 39 215 13 550 -48 614 l-56 59 98 32 c139 46 230 146 229 249 -1 65
7 82 42 92 39 12 394 403 443 488 10 18 24 96 30 173 l11 140 93 50 c208 112
302 307 220 453 -42 76 18 149 111 135 113 -17 226 83 226 200 0 40 8 72 19
72 22 0 50 -78 34 -94 -38 -37 34 -86 126 -86 106 0 156 35 271 187 51 67 65
75 119 64 33 -7 84 -15 111 -17 28 -2 79 -20 115 -39 101 -56 221 -63 392 -25
112 25 193 31 289 21 200 -20 266 -21 346 -3 69 15 74 12 94 -47 12 -34 34
-66 48 -71 42 -16 432 42 464 68 23 20 39 18 77 -7 112 -73 247 -29 482 156
71 56 75 57 178 32 58 -14 125 -27 149 -28 24 -1 67 -24 95 -50 40 -38 60 -44
96 -29 91 38 226 5 220 -54 -3 -29 8 -64 25 -78 31 -26 39 -24 152 35 7 4 18
-11 23 -33 15 -56 132 -122 217 -122 39 0 100 -14 134 -31 57 -29 69 -28 133
2 67 31 72 31 121 -8 52 -41 151 -30 181 19 17 27 72 22 107 -10 18 -15 111
-62 207 -103 189 -82 192 -85 141 -171 -48 -81 -3 -134 81 -96 59 27 94 11 57
-26 -56 -56 -26 -110 106 -198 72 -47 131 -91 131 -97 1 -6 4 -46 7 -88 10
-124 116 -216 296 -253 136 -28 146 -34 163 -95 32 -112 286 -99 398 21 34 35
56 48 58 31 1 -15 4 -49 7 -75 3 -27 20 -59 37 -73 43 -31 41 -54 -7 -134 -68
-111 -17 -205 165 -306 l54 -30 -57 -94 c-32 -52 -63 -113 -70 -135 -7 -22
-67 -94 -134 -160 -204 -202 -262 -335 -199 -459 38 -74 38 -76 1 -128 -91
-126 -58 -209 126 -319 52 -31 56 -41 45 -116 -23 -150 67 -244 214 -225 90
12 97 -15 45 -155 -38 -102 -44 -138 -27 -166 18 -29 13 -49 -25 -100 -46 -63
-47 -66 -12 -126 36 -62 35 -63 -24 -137 -93 -116 -140 -219 -152 -339 -6 -60
-25 -215 -43 -344 -32 -244 -10 -352 78 -381 46 -15 18 -218 -39 -270 -47 -44
-50 -56 -37 -168 10 -92 7 -129 -15 -154 -109 -124 33 -319 192 -264 33 12 66
21 74 21 20 0 0 -98 -22 -111 -10 -6 -18 -28 -18 -49 0 -61 -76 -71 -133 -18
-80 76 -116 35 -123 -141 -7 -162 23 -221 109 -221 49 0 60 -19 28 -51 -29
-30 9 -421 47 -479 97 -148 258 -169 347 -44 108 151 76 321 -34 181 -22 -29
-41 -64 -41 -77 0 -111 -154 -77 -168 37 -31 249 -26 329 21 351 52 23 115
133 100 173 -27 68 -108 96 -181 61 -84 -40 -105 -40 -119 -3 -16 42 0 48 208
71 279 32 285 34 271 105 -7 33 -12 68 -12 78 0 11 -30 13 -66 6 -58 -10 -69
-5 -90 40 -21 47 -19 51 24 51 26 0 71 19 100 42 154 121 -56 246 -249 149
-151 -76 -201 -47 -117 68 41 55 42 61 12 149 -18 51 -25 93 -18 94 59 9 142
-13 193 -52 106 -81 163 -84 201 -9 98 188 -93 365 -272 253 -52 -32 -64 -9
-28 58 49 94 38 152 -40 214 -80 64 -90 108 -25 118 60 8 72 75 16 90 -46 12
-46 51 -2 286 9 50 18 117 19 150 4 102 61 195 198 324 145 137 148 186 12
186 -72 0 -86 20 -39 59 22 18 42 16 92 -9 41 -22 70 -27 83 -14 36 36 -10
388 -56 426 -15 12 -28 38 -28 57 0 46 -73 121 -119 121 -39 0 -61 37 -61 102
0 22 -22 49 -50 61 -27 13 -54 39 -60 58 -6 19 -60 67 -121 107 -129 86 -126
73 -37 171 81 90 82 139 3 177 -94 45 -40 160 164 349 97 90 141 145 141 178
1 76 27 97 139 111 l106 12 -13 122 c-14 136 -34 161 -148 179 -41 7 -104 37
-140 67 l-65 56 60 90 c79 118 79 168 -2 201 l-62 26 11 132 c15 178 20 187
155 270 141 87 164 123 147 230 -11 67 -7 81 19 81 28 0 33 27 33 181 0 116
-7 177 -20 169 -11 -7 -20 -56 -20 -109 0 -86 -5 -98 -50 -109 -67 -17 -117
-119 -105 -212 12 -85 -111 -219 -137 -151 -36 94 -107 34 -213 -179 -95 -192
-111 -213 -175 -230 -99 -28 -120 -25 -120 17 0 57 -62 100 -181 123 -234 47
-306 135 -236 288 31 69 -9 120 -80 102 -113 -28 -217 73 -143 140 90 82 20
244 -82 189 -32 -17 -41 -13 -57 28 -19 51 -101 124 -161 143 -21 7 -40 32
-44 56 -5 38 -18 44 -96 44 -90 0 -90 0 -96 75 -6 75 41 128 73 82 38 -55 210
-105 233 -67 22 35 -30 100 -81 100 -69 0 -65 67 9 142 l59 58 -109 0 c-96 0
-108 -5 -108 -41 0 -28 -20 -48 -62 -63 -42 -14 -72 -44 -92 -91 -21 -52 -35
-64 -51 -48 -34 34 -46 29 -124 -52 -63 -65 -75 -71 -91 -42 -30 51 -113 62
-192 25 -56 -27 -80 -29 -120 -11 -27 13 -85 23 -127 23 -76 0 -141 50 -166
126 -5 13 -37 25 -72 26 -34 1 -80 17 -101 36 -27 25 -77 36 -175 38 -93 3
-153 15 -186 39 -41 28 -94 35 -283 35 l-233 0 -75 -68 c-62 -57 -85 -67 -139
-58 -36 6 -85 0 -110 -13 -38 -21 -50 -17 -94 30 -41 45 -60 51 -113 40 -35
-8 -107 -16 -159 -19 -72 -3 -108 -17 -151 -58 -69 -66 -84 -67 -84 -6 0 88
-48 104 -186 60 -120 -38 -126 -38 -194 -4 -89 46 -234 46 -484 3 -225 -39
-356 -19 -356 54 0 30 -14 39 -60 39 -33 0 -60 -10 -60 -21z m-2225 -1504
c-26 -112 -42 -117 -95 -30 -54 89 -51 110 18 100 31 -5 64 2 72 14 25 42 27
13 5 -84z m8385 -669 c0 -19 -12 -26 -32 -18 -17 7 -35 12 -40 12 -4 0 -8 13
-8 28 0 18 14 25 40 18 22 -6 40 -24 40 -40z"/>
<path d="M325 9204 c-25 -4 -45 -15 -45 -26 0 -10 -22 -28 -50 -38 -53 -20
-76 -182 -30 -210 11 -7 20 -34 20 -60 0 -26 10 -54 23 -62 34 -21 77 50 77
127 0 37 14 94 31 127 44 85 32 150 -26 142z"/>
<path d="M1048 9031 c-16 -40 7 -71 51 -71 38 0 69 51 50 82 -18 29 -89 21
-101 -11z"/>
<path d="M1301 8965 c-60 -49 -81 -245 -27 -244 46 1 146 132 146 192 0 67
-65 95 -119 52z"/>
<path d="M9 8510 c0 -242 2 -338 6 -214 3 124 3 322 0 440 -4 118 -6 16 -6
-226z"/>
<path d="M7831 8413 c-24 -17 -33 -40 -24 -61 19 -51 180 -37 190 16 13 68
-95 97 -166 45z"/>
<path d="M5 7840 c-2 -102 3 -136 15 -107 9 23 34 55 55 70 58 42 81 87 27 54
-23 -15 -42 -33 -42 -42 0 -64 -39 5 -45 80 -5 66 -9 49 -10 -55z"/>
<path d="M0 4626 c0 -104 3 -112 32 -83 26 26 27 45 9 114 -30 112 -41 104
-41 -31z"/>
<path d="M7 3560 c0 -82 3 -116 8 -75 4 41 4 109 0 150 -5 41 -8 8 -8 -75z"/>
<path d="M9 2440 c0 -280 3 -395 6 -255 3 140 3 370 0 510 -3 140 -6 26 -6
-255z"/>
<path d="M8978 1735 c-2 -14 -2 -35 0 -47 1 -12 -25 -21 -59 -21 -104 0 -289
-200 -284 -308 7 -172 103 -273 290 -307 127 -23 109 73 -22 117 -148 49 -177
151 -81 280 51 68 82 90 123 90 53 1 55 4 55 111 0 96 -16 155 -22 85z"/>
<path d="M280 1490 c-71 -71 -143 -130 -161 -130 -50 0 -102 -69 -113 -149 -7
-55 -2 -71 21 -71 67 0 371 245 398 320 9 24 17 21 44 -15 18 -25 46 -45 62
-45 18 0 33 -30 41 -78 12 -77 46 -120 203 -261 60 -53 93 -161 49 -161 -21 0
-107 94 -151 165 -57 92 -173 64 -173 -41 0 -49 58 -164 83 -164 22 0 177
-202 177 -231 0 -14 -26 -31 -57 -38 -31 -7 -88 -45 -125 -84 -128 -133 -216
-152 -218 -47 0 39 -134 180 -170 180 -57 0 -128 -47 -147 -98 -25 -67 -43
-195 -29 -209 27 -27 126 50 126 96 0 70 27 77 81 20 25 -27 59 -49 76 -49 16
0 87 -32 157 -70 102 -56 136 -66 167 -49 59 31 119 -9 119 -81 0 -57 59 -115
87 -86 43 42 10 189 -57 260 -84 89 -87 106 -18 106 115 0 197 139 130 222
-37 46 -37 47 24 122 104 130 70 289 -82 386 -34 22 -63 50 -63 63 -1 12 -14
33 -31 47 -16 14 -30 53 -30 88 0 71 -30 112 -82 112 -18 0 -48 23 -66 50 -58
88 -126 67 -272 -80z"/>
<path d="M8461 1031 c-16 -19 -21 -55 -13 -96 43 -230 44 -222 -19 -210 -131
25 -170 -28 -181 -245 -7 -138 -13 -154 -68 -200 -33 -27 -60 -66 -60 -85 0
-19 -12 -35 -27 -35 -34 0 -84 -57 -102 -115 -31 -101 78 -52 184 83 25 32 45
49 45 38 0 -11 14 -21 30 -23 17 -1 43 -5 58 -6 17 -2 23 -16 16 -35 -9 -26
-6 -28 18 -8 40 33 182 52 215 29 31 -21 8 -73 -32 -73 -14 0 -25 -7 -25 -15
0 -8 5 -15 10 -15 6 0 50 0 98 0 l88 0 7 90 c8 101 5 104 -46 57 -35 -31 -37
-31 -37 7 0 75 -51 97 -157 68 -194 -54 -178 -54 -137 -7 26 29 39 85 46 196
12 190 20 204 79 148 42 -40 56 -42 130 -23 73 18 90 15 153 -28 77 -52 134
-59 215 -28 73 27 63 56 -24 72 -116 21 -135 37 -135 120 0 73 -4 77 -90 100
-49 13 -81 25 -70 26 11 2 7 11 -9 21 -16 10 -34 62 -40 115 -12 104 -68 140
-120 77z"/>
<path d="M8683 994 c-79 -85 -9 -164 232 -260 l85 -34 0 68 c0 67 -4 70 -123
105 -68 21 -127 48 -132 62 -10 29 61 34 111 8 99 -51 144 -46 144 14 0 94
-237 122 -317 37z"/>
<path d="M5 823 c-21 -55 110 -66 190 -16 11 7 32 -1 46 -18 59 -72 244 -130
271 -86 9 14 5 18 -9 9 -13 -8 -23 -4 -23 8 0 12 -8 17 -18 11 -10 -6 -22 -4
-25 4 -35 77 -407 153 -432 88z"/>
<path d="M8801 411 c-27 -14 -60 -22 -74 -17 -34 13 -158 -29 -186 -63 -29
-34 131 -3 176 35 24 19 26 13 14 -40 -12 -57 -10 -62 29 -52 27 7 38 22 31
41 -8 20 -2 26 17 18 19 -7 36 10 49 48 23 66 15 70 -56 30z"/>
</g>
</svg>
