<?xml version="1.0" standalone="no"?>
<!DOCTYPE svg PUBLIC "-//W3C//DTD SVG 20010904//EN"
 "http://www.w3.org/TR/2001/REC-SVG-20010904/DTD/svg10.dtd">
<svg version="1.0" xmlns="http://www.w3.org/2000/svg"
 width="300.000000pt" height="258.000000pt" viewBox="0 0 300.000000 258.000000"
 preserveAspectRatio="xMidYMid meet">
<metadata>
Created by potrace 1.10, written by Peter Selinger 2001-2011
</metadata>
<g transform="translate(0.000000,258.000000) scale(0.050000,-0.050000)"
fill="#000000" stroke="none">
<path d="M1149 4665 c-17 -41 -40 -115 -51 -165 -20 -90 -116 -420 -167 -570
-15 -44 -42 -134 -61 -200 -19 -66 -41 -138 -51 -160 -9 -22 -35 -107 -59
-190 -50 -176 -81 -262 -102 -291 -87 -115 -33 -211 135 -240 88 -15 193 -47
477 -142 110 -37 214 -67 232 -67 18 0 72 -21 122 -48 232 -123 270 -101 358
206 46 158 31 149 168 113 143 -37 143 -37 116 -117 -12 -35 -42 -131 -66
-214 -51 -179 -77 -255 -105 -315 -33 -68 92 -178 220 -195 142 -19 151 -25
136 -75 -7 -25 -27 -101 -44 -169 -20 -82 -42 -128 -65 -135 -154 -49 -334
-372 -316 -568 60 -653 907 -818 1194 -232 64 129 70 381 12 487 -34 64 -35
82 -10 245 29 197 30 198 165 126 87 -47 100 -49 131 -21 18 17 51 26 74 20
46 -12 98 38 113 112 6 28 30 118 52 200 23 83 42 170 43 194 0 65 24 69 148
27 158 -55 153 -47 113 -196 -76 -285 -67 -316 100 -334 49 -6 232 -46 407
-91 175 -44 335 -80 356 -80 21 0 73 -18 116 -40 132 -67 239 25 240 206 0 13
41 186 92 384 233 915 301 1225 274 1252 -11 11 -146 52 -298 90 -153 38 -309
78 -348 88 -208 57 -503 118 -527 109 -15 -6 -42 -80 -62 -165 -19 -85 -47
-200 -63 -256 -15 -56 -28 -116 -28 -135 0 -43 -11 -42 -60 7 -22 22 -60 40
-85 40 -25 0 -64 6 -88 12 l-43 12 35 133 c121 458 115 473 -219 515 -27 4
-108 21 -180 39 -71 17 -164 37 -205 42 -41 6 -75 19 -75 29 0 10 -26 18 -59
18 -32 0 -64 9 -71 20 -7 11 -32 19 -56 19 -62 -2 -153 20 -227 53 -226 101
-407 -8 -407 -244 0 -25 -9 -51 -20 -58 -11 -7 -20 -34 -20 -59 0 -51 -15 -52
-200 -13 -83 17 -83 9 14 299 38 116 71 250 73 299 l3 89 -320 105 c-176 58
-414 133 -530 169 -115 35 -231 72 -256 82 -94 39 -141 24 -175 -56z m501
-207 c165 -54 368 -117 450 -141 198 -57 192 -45 123 -260 -34 -103 -98 -304
-144 -447 -45 -143 -99 -309 -119 -370 -20 -60 -56 -177 -80 -260 -77 -265
-83 -280 -111 -280 -26 0 -371 107 -679 211 -77 25 -174 53 -215 60 -99 18
-102 26 -56 152 22 59 76 229 121 377 45 149 90 293 100 320 33 94 178 570
192 630 23 99 48 135 85 119 18 -7 168 -57 333 -111z m1300 -548 c55 -15 312
-81 570 -146 542 -137 497 -94 414 -394 -111 -397 -168 -618 -233 -890 -9 -38
-32 -128 -50 -200 -19 -71 -42 -166 -53 -210 -11 -44 -29 -113 -39 -153 l-20
-74 -164 56 c-91 30 -219 71 -285 91 -66 20 -142 43 -170 52 -98 31 -452 137
-566 169 -82 23 -111 39 -98 56 10 13 23 41 30 63 28 97 78 263 174 580 57
187 116 383 132 435 15 52 42 142 59 200 49 162 70 238 92 332 18 76 26 85 64
73 24 -7 88 -25 143 -40z m-483 -441 c-2 -21 -30 -129 -63 -239 -67 -223 -67
-223 -251 -174 -101 27 -99 20 -45 160 27 68 55 152 63 188 33 155 32 154 173
128 106 -19 126 -29 123 -63z m2323 -16 c99 -26 270 -68 380 -93 355 -80 336
-55 260 -354 -27 -108 -98 -398 -158 -646 -60 -247 -122 -504 -138 -570 -21
-83 -38 -118 -57 -112 -126 36 -637 160 -787 191 -82 16 -119 33 -117 52 2 16
53 227 114 469 62 242 139 557 173 700 91 383 99 410 126 410 13 0 105 -21
204 -47z m-643 -423 c32 -17 75 -30 95 -30 48 0 49 17 -23 -279 -33 -138 -65
-271 -70 -296 -11 -52 -46 -56 -185 -22 -129 31 -129 32 -83 188 22 77 48 166
58 199 10 33 24 101 32 150 21 135 56 153 176 90z m-1395 -1092 c76 -24 188
-58 248 -77 l110 -35 -7 -98 c-9 -130 -30 -148 -98 -84 -83 77 -222 121 -354
113 -112 -7 -114 -6 -102 43 6 28 17 79 24 115 15 77 5 76 179 23z m145 -392
c123 -76 207 -214 219 -357 44 -531 -685 -712 -895 -222 -177 414 292 816 676
579z"/>
<path d="M4160 1632 c0 -29 10 -52 21 -52 12 0 16 -9 9 -20 -7 -11 2 -20 19
-20 17 0 31 -8 31 -18 0 -21 242 -85 335 -88 36 -2 65 -10 65 -20 0 -9 9 -11
19 -4 11 6 38 -7 61 -30 23 -23 40 -31 36 -16 -8 35 6 42 52 24 20 -8 53 -4
73 8 27 17 39 17 48 -2 6 -13 8 -4 3 20 -5 30 1 40 20 32 16 -6 28 2 28 18 0
21 -45 36 -155 52 -381 58 -424 68 -630 154 -28 11 -35 4 -35 -38z"/>
</g>
</svg>
