<?xml version="1.0" standalone="no"?>
<!DOCTYPE svg PUBLIC "-//W3C//DTD SVG 20010904//EN"
 "http://www.w3.org/TR/2001/REC-SVG-20010904/DTD/svg10.dtd">
<svg version="1.0" xmlns="http://www.w3.org/2000/svg"
 width="450.000000pt" height="734.000000pt" viewBox="0 0 450.000000 734.000000"
 preserveAspectRatio="xMidYMid meet">
<metadata>
Created by potrace 1.10, written by Peter Selinger 2001-2011
</metadata>
<g transform="translate(0.000000,734.000000) scale(0.050000,-0.050000)"
fill="#000000" stroke="none">
<path d="M5720 14542 c0 -29 139 -85 189 -77 33 6 27 13 -31 39 -114 50 -158
61 -158 38z"/>
<path d="M4260 14346 c-217 -38 -620 -166 -620 -197 0 -11 -51 -43 -114 -70
-63 -27 -170 -90 -238 -141 -164 -123 -168 -125 -168 -90 0 65 128 175 298
256 94 45 176 86 181 90 18 15 -45 42 -72 32 -15 -6 -27 1 -27 14 0 16 -15 20
-45 11 -25 -8 -59 -16 -75 -19 -17 -2 -42 -11 -57 -20 -14 -9 -31 -11 -36 -5
-6 6 -35 -11 -64 -38 -29 -27 -59 -49 -68 -49 -8 0 -15 -19 -15 -41 0 -31 -11
-40 -43 -35 -24 3 -47 -5 -52 -19 -4 -14 -1 -25 8 -25 64 0 13 -179 -81 -287
-54 -62 -117 -139 -140 -171 -45 -64 -110 -102 -172 -102 -21 0 -43 -9 -50
-20 -7 -12 -21 -15 -32 -9 -10 6 -24 -2 -30 -20 -7 -17 -19 -27 -27 -21 -9 5
-13 -13 -10 -40 7 -63 -30 -91 -135 -103 -122 -13 -230 -75 -351 -199 -57 -59
-113 -108 -124 -108 -42 0 -502 -284 -639 -395 -38 -30 -99 -76 -137 -102 -62
-43 -119 -100 -243 -243 -162 -188 -273 -482 -216 -573 17 -27 -18 -75 -43
-59 -12 7 -16 26 -10 43 6 16 1 29 -12 29 -13 0 -18 8 -12 18 36 58 -71 96
-119 42 -110 -122 587 -1010 1011 -1287 36 -23 86 -56 109 -73 98 -69 181
-120 196 -120 9 0 38 -20 65 -46 27 -25 110 -71 184 -102 74 -32 185 -79 245
-106 124 -56 479 -183 534 -192 20 -3 47 -12 60 -20 13 -8 56 -16 96 -18 53
-2 82 -16 110 -56 27 -38 55 -53 94 -51 63 2 206 -59 206 -90 0 -11 -20 -15
-45 -10 -53 11 -112 17 -157 13 -35 -2 -76 -146 -119 -422 -13 -82 -36 -180
-51 -217 -16 -38 -28 -90 -28 -116 0 -95 -135 -92 2290 -57 330 4 691 9 801 9
258 1 301 29 258 165 -36 115 -59 205 -119 466 -28 121 -60 236 -71 255 -32
57 -23 72 61 97 44 13 94 41 113 61 18 20 48 37 65 37 46 0 222 65 222 83 0 8
41 21 91 28 51 8 117 35 148 61 31 27 78 47 104 45 26 -1 88 17 137 40 50 23
106 42 125 43 19 0 35 7 35 17 0 9 47 38 105 65 58 26 159 84 225 128 66 44
154 98 195 120 101 54 339 238 460 355 53 52 107 95 119 95 13 0 18 5 12 11
-6 5 33 57 87 114 53 57 97 114 97 126 0 12 23 43 50 69 28 26 50 63 50 83 0
21 7 37 15 37 14 0 49 52 129 196 38 67 89 240 108 364 6 39 15 86 20 105 29
98 28 142 -4 177 -60 67 -150 29 -137 -57 2 -14 5 -53 7 -86 1 -35 10 -56 22
-49 11 7 20 -5 20 -27 0 -46 -42 -67 -82 -41 -15 9 -21 18 -13 18 14 0 -28 84
-100 196 -185 294 -572 704 -663 704 -12 0 -22 10 -22 21 0 12 -8 16 -19 10
-10 -6 -24 -2 -32 10 -26 43 -406 200 -498 206 -24 2 -44 24 -53 60 -19 68
-135 192 -182 193 -18 0 -38 8 -44 17 -31 50 -312 -67 -312 -129 0 -53 -78
-31 -93 26 -46 184 -448 596 -737 754 -33 18 -89 51 -125 72 -36 22 -70 39
-75 39 -6 0 -38 14 -71 31 -322 167 -1074 280 -1439 216z m697 -197 c198 -29
426 -88 508 -131 19 -10 44 -18 55 -18 36 0 305 -140 480 -250 85 -54 267
-215 349 -310 34 -38 82 -89 108 -114 37 -35 44 -57 34 -103 -15 -68 89 -238
139 -227 15 3 33 -4 40 -15 7 -12 30 -21 51 -21 102 0 -159 -312 -412 -495
-46 -32 -153 -85 -176 -85 -12 -1 -43 -22 -67 -48 -104 -109 -353 -212 -636
-262 -88 -16 -245 -48 -350 -72 -682 -156 -1571 106 -2052 606 -251 261 -317
405 -245 536 148 268 395 539 627 689 295 191 270 180 301 135 22 -31 62 -42
198 -53 94 -8 171 -22 171 -32 0 -23 -73 -146 -165 -277 -141 -203 -68 -326
129 -216 131 74 145 56 75 -92 -92 -195 -57 -286 106 -270 72 7 85 1 113 -48
83 -144 226 -51 162 105 -39 92 -109 138 -191 125 -84 -14 -85 -2 -9 136 118
215 40 365 -135 258 -114 -69 -116 -40 -6 114 186 259 154 356 -107 334 -107
-8 -171 -6 -179 8 -23 36 114 68 477 111 152 18 413 10 607 -18z m-2266 -867
c-72 -119 -131 -158 -131 -87 0 49 165 248 187 226 10 -10 -13 -68 -56 -139z
m4443 -162 c-6 -22 -2 -40 8 -40 43 0 66 -98 31 -136 -19 -21 -33 -70 -33
-113 0 -60 -16 -95 -75 -162 -87 -99 -194 -261 -214 -325 -7 -24 -21 -44 -31
-44 -9 0 -100 -82 -203 -182 -240 -233 -742 -538 -886 -538 -16 0 -98 -22
-181 -49 -346 -113 -1130 -138 -1385 -43 -166 61 -201 71 -360 99 -487 87
-1268 629 -1586 1100 -135 201 -50 354 197 353 94 -1 107 -11 155 -120 122
-278 580 -707 940 -879 347 -167 960 -297 1269 -270 610 53 1104 190 1400 390
28 18 100 66 160 105 122 78 455 395 511 486 20 32 65 103 100 158 35 55 79
134 98 175 38 79 104 107 85 35z m396 -271 c173 -65 256 -108 276 -142 9 -15
52 -46 96 -68 104 -53 209 -149 347 -318 l112 -137 -65 -93 c-138 -194 -161
-223 -311 -387 -85 -93 -161 -179 -169 -191 -16 -25 -11 -30 -127 117 -43 55
-198 242 -344 415 -302 358 -285 321 -200 451 36 55 97 168 135 252 80 172 71
169 250 101z m-5538 -134 c45 -87 206 -296 263 -341 55 -45 58 -74 6 -74 -37
0 -308 -222 -581 -477 -99 -92 -135 -115 -156 -98 -71 59 -408 499 -392 512
91 79 534 383 556 383 6 0 67 36 136 80 151 95 128 93 168 15z m538 -627 c196
-185 666 -482 880 -555 22 -8 76 -26 120 -41 100 -33 99 -92 -10 -362 -26 -66
-117 -375 -131 -445 -12 -64 -42 -82 -80 -48 -10 10 -73 36 -139 59 -283 97
-680 285 -867 412 -59 40 -112 72 -117 72 -10 0 -177 119 -246 174 -122 98
-188 146 -203 146 -9 0 -17 18 -17 40 0 22 7 40 15 40 9 0 51 34 95 76 44 42
147 133 228 202 212 181 295 266 311 317 17 56 -2 66 161 -87z m4452 47 c22
-41 198 -259 247 -305 11 -11 45 -51 73 -90 50 -67 126 -153 258 -294 77 -83
76 -95 -15 -155 -41 -27 -112 -76 -158 -109 -195 -137 -484 -295 -757 -412
-63 -27 -511 -190 -522 -190 -1 0 -8 43 -15 95 -24 182 -138 675 -166 721 -33
52 -21 84 33 84 160 0 819 471 918 656 30 57 74 56 104 -1z m-5888 -160 c45
-69 151 -195 234 -281 177 -182 177 -183 71 -166 -194 31 -417 -157 -419 -353
0 -81 -26 -68 -105 52 l-71 107 3 218 c3 227 23 296 142 483 53 84 49 85 145
-60z m7463 -30 c107 -213 99 -360 -24 -491 -29 -31 -53 -74 -53 -95 0 -42 -95
-199 -120 -199 -9 0 -22 32 -29 71 -18 97 -136 224 -223 241 -89 16 -87 22 44
160 61 65 126 143 144 173 18 30 39 55 47 55 8 0 39 45 69 100 68 126 75 125
145 -15z m-2810 -670 c6 -69 44 -264 82 -433 39 -170 69 -310 66 -312 -10 -8
-311 -53 -535 -81 -444 -55 -1111 -25 -1564 72 -101 21 -192 39 -202 39 -24 0
-12 48 62 260 83 238 164 501 164 535 0 30 133 20 200 -15 252 -132 1404 -103
1660 42 50 28 54 22 67 -107z m-4260 74 c198 -96 190 -355 -15 -457 -231 -114
-445 198 -271 396 81 93 179 114 286 61z m6609 -40 c176 -124 94 -389 -120
-389 -109 0 -216 102 -216 207 0 158 208 271 336 182z m-6196 -129 c277 -224
774 -493 1129 -610 150 -49 181 -78 107 -101 -162 -49 -264 -281 -193 -438 34
-74 9 -83 -105 -42 -75 27 -107 30 -123 14 -30 -30 -93 -29 -155 3 -27 14 -94
42 -149 63 -111 42 -524 250 -595 300 -25 18 -109 76 -186 130 -272 189 -299
221 -189 221 232 0 405 274 328 518 -18 58 -3 51 131 -58z m5720 -121 c0 -125
104 -247 232 -271 37 -7 68 -23 68 -37 0 -56 -660 -443 -940 -551 -38 -15 -80
-34 -92 -43 -11 -9 -49 -5 -84 8 -54 20 -77 17 -168 -23 -184 -80 -183 -80
-166 15 15 89 -47 255 -103 277 -55 21 -23 43 168 116 301 114 546 228 607
282 17 15 41 28 52 28 12 0 32 14 46 30 14 17 39 30 56 30 17 0 45 14 62 30
162 156 262 198 262 109z m-3757 -727 c387 -84 1404 -97 1755 -23 166 36 178
32 145 -40 -35 -78 -27 -150 27 -246 61 -107 57 -115 -75 -129 -58 -6 -231
-30 -385 -54 -376 -60 -1067 -65 -1480 -12 -326 41 -307 32 -249 114 72 101
77 254 12 365 -60 103 -52 122 38 84 36 -15 132 -42 212 -59z m2306 48 c108 0
176 -223 96 -317 -93 -110 -325 -61 -355 75 -26 122 108 286 207 251 14 -5 38
-9 52 -9z m-2724 -100 c74 -82 75 -193 3 -278 -115 -138 -368 -49 -368 128 0
206 230 301 365 150z m3011 -335 c-3 -17 -26 -38 -51 -47 -41 -15 -44 -13 -25
22 12 22 16 40 10 40 -7 0 -7 9 -1 19 18 29 74 0 67 -34z m-3036 -235 c-14
-16 -37 -30 -52 -30 -16 0 -28 -10 -28 -21 0 -37 -109 -12 -116 26 -6 30 7 35
85 32 50 -2 97 2 104 10 26 26 31 13 7 -17z m757 -80 c14 -14 0 -23 -57 -37
-27 -7 -39 -7 -25 -1 36 16 31 44 -10 54 -19 5 -9 5 24 1 32 -4 62 -12 68 -17z
m1782 -205 c24 -107 62 -254 83 -327 21 -73 38 -138 38 -145 0 -7 -148 -13
-330 -13 -319 0 -330 1 -330 41 0 52 -52 280 -92 406 -38 119 -46 113 166 145
97 15 221 40 276 55 55 15 110 29 123 31 12 1 41 -83 66 -193z m-2318 76 c60
-11 170 -23 245 -28 166 -10 161 -4 127 -136 -16 -61 -35 -179 -43 -263 -9
-92 -24 -154 -37 -154 -13 -1 -147 -5 -299 -11 -152 -5 -283 -6 -292 0 -31 19
131 611 168 611 12 0 72 -9 131 -19z m1463 -121 c18 -116 66 -315 93 -383 11
-29 15 -58 8 -65 -19 -19 -1045 -14 -1045 5 0 9 9 43 20 75 11 32 31 142 45
245 l25 187 367 7 c202 3 373 12 379 19 41 40 95 -4 108 -90z m-1935 -502 c-5
-8 5 -19 21 -25 36 -14 40 -65 7 -85 -16 -10 -20 -3 -11 20 11 27 6 32 -24 23
-28 -9 -39 0 -46 34 -6 34 0 46 26 46 19 0 31 -6 27 -13z"/>
<path d="M6492 12881 c-118 -77 -253 -306 -208 -351 10 -10 228 246 283 332
44 70 13 78 -75 19z"/>
<path d="M2481 12601 c-31 -58 -26 -82 30 -134 86 -79 169 -51 169 56 0 99
-155 160 -199 78z"/>
<path d="M6720 12471 c0 -20 18 -31 52 -31 62 0 55 47 -9 56 -28 5 -43 -4 -43
-25z"/>
<path d="M6647 12410 c-16 -42 8 -95 38 -85 14 5 25 17 25 27 0 10 9 31 18 46
13 19 11 24 -5 14 -13 -8 -23 -5 -23 7 0 32 -40 25 -53 -9z"/>
<path d="M2941 12211 c-65 -78 53 -218 148 -175 101 46 45 204 -73 204 -28 0
-62 -13 -75 -29z"/>
<path d="M6298 12142 c-79 -42 -101 -116 -46 -156 50 -37 71 -33 133 25 107
99 41 199 -87 131z"/>
<path d="M5760 11874 c-115 -58 -41 -219 77 -169 103 44 124 94 63 155 -46 46
-71 49 -140 14z"/>
<path d="M3615 11839 c-53 -32 -47 -126 6 -109 27 9 56 1 80 -21 48 -43 99
-24 99 38 0 79 -113 135 -185 92z"/>
<path d="M4263 11688 c-70 -49 -53 -139 26 -134 32 3 71 -6 87 -19 47 -39 106
61 69 117 -43 64 -120 79 -182 36z"/>
<path d="M5006 11700 c-94 -38 -95 -178 -2 -182 127 -7 187 34 164 111 -22 72
-87 101 -162 71z"/>
<path d="M8353 11675 c-29 -36 -65 -81 -82 -100 -54 -61 1 -38 65 27 50 52 97
138 74 138 -4 0 -29 -29 -57 -65z"/>
<path d="M2101 10919 c-5 -89 68 -199 132 -199 42 0 73 -11 80 -30 6 -16 21
-23 34 -15 13 7 35 16 50 18 15 2 33 11 40 19 7 8 -1 9 -19 3 -65 -23 -242 82
-294 175 -13 22 -23 35 -23 29z"/>
<path d="M8046 10495 c-9 -14 -38 -37 -66 -51 -91 -48 -182 -130 -118 -106 37
13 61 12 78 -4 20 -19 23 -19 13 0 -8 13 3 28 25 35 21 7 49 39 62 72 18 43
32 54 49 40 17 -14 24 -12 24 9 0 36 -45 40 -67 5z"/>
<path d="M5770 8258 c-176 -8 -585 -25 -910 -38 -324 -13 -639 -26 -700 -30
-60 -3 -353 -12 -650 -21 -297 -9 -547 -18 -555 -20 -8 -2 -26 -5 -40 -7 -67
-7 -82 -41 -89 -195 -7 -171 -15 -241 -32 -287 -6 -16 -17 -82 -24 -145 -7
-63 -21 -120 -32 -126 -10 -7 -14 -19 -9 -27 5 -9 2 -46 -8 -84 -10 -37 -22
-108 -28 -158 -5 -49 -12 -99 -15 -110 -7 -30 34 -118 67 -146 22 -18 113 -19
387 -4 197 11 457 24 578 30 121 6 292 15 380 20 88 5 241 14 340 20 99 6 243
15 320 20 77 6 302 20 500 31 198 11 405 24 460 28 55 5 256 15 446 22 326 13
350 17 403 61 34 29 83 48 121 48 58 0 63 5 51 45 -7 25 -27 104 -44 175 -17
72 -42 180 -56 240 -15 61 -47 190 -72 287 -35 133 -42 190 -27 230 61 167 15
175 -762 141z m561 -348 c25 -127 69 -325 116 -517 34 -140 64 -127 -328 -141
l-311 -11 -26 145 c-38 211 -120 553 -142 595 -27 49 -26 49 344 49 l324 0 23
-120z m-901 25 c11 -66 98 -450 153 -675 6 -24 -36 -32 -243 -44 -137 -8 -493
-29 -790 -46 -297 -18 -567 -35 -600 -37 -68 -3 -67 -13 -24 207 16 83 45 255
64 383 l36 233 302 13 c166 7 446 20 622 29 176 9 353 17 393 19 72 3 74 1 87
-82z m-1640 -30 c-22 -82 -67 -369 -93 -589 l-23 -193 -142 -11 c-78 -6 -235
-16 -350 -22 l-207 -12 12 46 c7 25 40 186 73 356 33 171 67 342 75 380 l15
70 270 11 c149 6 296 13 327 15 53 4 56 0 43 -51z"/>
<path d="M6420 6638 c-115 -7 -354 -24 -530 -37 -176 -12 -590 -40 -920 -61
-2370 -152 -2390 -154 -2390 -241 0 -22 -13 -45 -28 -51 -26 -10 -46 -97 -64
-274 -4 -42 -20 -123 -36 -180 -16 -57 -34 -149 -40 -204 -13 -128 -27 -196
-63 -323 -42 -148 -39 -207 12 -207 22 0 46 -16 53 -35 27 -72 165 -83 596
-46 121 11 306 24 410 31 105 6 303 20 440 30 138 10 340 23 450 29 312 17
550 32 670 42 60 5 177 14 260 19 82 6 285 20 450 31 165 11 425 29 577 40
152 10 285 24 295 30 11 7 154 14 319 17 164 3 304 11 311 17 11 11 -9 91 -78
315 -25 81 -32 111 -43 180 -4 28 -27 127 -50 220 -41 167 -66 271 -93 390 -8
33 -24 66 -36 74 -15 10 -14 22 3 39 39 39 31 133 -15 157 -40 21 -89 21 -460
-2z m260 -333 c83 -406 163 -750 192 -817 6 -15 -69 -27 -236 -36 -135 -7
-283 -18 -328 -24 -78 -11 -83 -9 -94 45 -7 31 -31 143 -54 247 -23 105 -50
231 -59 280 -9 50 -35 153 -58 230 -22 77 -38 141 -36 143 4 5 463 40 577 44
l73 3 23 -115z m-863 -100 c13 -85 36 -195 52 -245 16 -49 44 -166 62 -260 18
-93 43 -195 54 -226 27 -74 91 -64 -715 -112 -396 -24 -832 -52 -970 -63 -528
-42 -683 -50 -691 -37 -5 7 5 89 21 181 62 348 110 662 110 719 0 76 -18 72
440 97 215 13 521 32 680 44 386 29 707 50 831 54 l102 3 24 -155z m-2293 5
c6 -6 2 -44 -7 -85 -30 -133 -96 -551 -109 -698 -18 -194 7 -181 -416 -217
-433 -36 -400 -42 -363 72 16 48 47 187 70 308 48 258 102 529 113 565 4 17
54 26 152 27 120 2 305 14 518 35 17 2 36 -2 42 -7z"/>
<path d="M6620 4738 c-137 -8 -407 -25 -600 -37 -192 -12 -413 -26 -490 -31
-77 -5 -270 -14 -430 -20 -159 -6 -339 -16 -400 -21 -135 -12 -1038 -64 -1380
-79 -137 -6 -313 -15 -390 -20 -77 -6 -225 -15 -330 -21 -291 -16 -318 -23
-332 -81 -7 -28 -33 -59 -58 -68 -37 -14 -47 -38 -58 -134 -16 -139 -23 -180
-39 -246 -6 -27 -16 -77 -20 -110 -22 -157 -117 -593 -143 -657 -14 -33 -7
-36 82 -30 l98 7 -4 -66 c-6 -109 26 -113 577 -76 268 19 528 37 577 42 286
26 843 67 1500 110 160 11 389 28 510 39 121 11 319 25 440 32 121 7 315 21
430 30 116 10 395 31 620 48 561 41 658 51 671 73 6 10 52 18 103 18 85 0 90
3 77 45 -11 39 -29 107 -84 325 -6 22 -11 54 -12 70 0 17 -8 35 -16 40 -8 6
-29 82 -47 170 -18 88 -37 178 -42 200 -6 22 -22 90 -36 150 -22 97 -31 110
-75 110 -34 0 -47 9 -41 30 50 194 21 201 -658 158z m463 -278 c43 -220 107
-509 141 -640 21 -82 40 -163 42 -180 3 -25 -38 -32 -226 -43 -126 -7 -270
-16 -320 -20 -83 -6 -90 -3 -96 43 -3 28 -22 118 -42 200 -21 83 -48 204 -61
270 -21 106 -61 283 -83 370 -7 24 33 32 222 44 127 8 253 18 280 23 105 17
128 6 143 -67z m-863 -23 c0 -47 56 -301 134 -607 28 -110 52 -218 53 -240 3
-43 37 -39 -987 -109 -181 -12 -483 -35 -670 -51 -187 -15 -488 -38 -670 -50
-181 -12 -428 -31 -549 -41 -251 -21 -245 -23 -215 76 12 41 41 206 65 365 24
160 53 349 66 420 l23 130 270 15 c957 51 1430 77 1720 95 182 11 389 23 460
26 72 4 168 8 215 10 75 4 85 -1 85 -39z m-2996 -128 c6 -6 -2 -76 -17 -155
-16 -79 -41 -234 -57 -344 -16 -110 -38 -258 -49 -330 -11 -71 -20 -140 -21
-153 0 -15 -78 -27 -225 -37 -124 -7 -310 -21 -414 -31 -221 -20 -227 -18
-192 66 23 56 149 669 181 877 l11 72 344 20 c190 10 364 21 387 23 23 1 46
-2 52 -8z"/>
<path d="M7460 2927 c-38 -3 -218 -16 -400 -27 -181 -12 -487 -35 -680 -50
-192 -16 -552 -43 -800 -60 -247 -16 -562 -39 -700 -50 -561 -45 -785 -62
-1090 -80 -176 -11 -392 -29 -480 -39 -88 -11 -250 -24 -360 -30 -567 -31
-887 -59 -947 -83 -38 -16 -89 -28 -114 -28 -61 0 -65 -9 -91 -192 -12 -86
-30 -173 -41 -194 -35 -65 -24 -144 31 -227 53 -80 56 -119 22 -227 -9 -29 -4
-40 20 -40 18 0 27 -9 20 -20 -13 -21 259 -300 292 -300 11 0 24 -13 30 -28
10 -27 79 -55 115 -46 10 2 32 -27 50 -65 18 -38 60 -83 93 -100 33 -17 63
-38 67 -46 3 -8 26 -15 50 -15 23 0 72 -18 108 -40 36 -22 91 -40 122 -40 30
0 149 -32 264 -71 264 -89 411 -127 495 -128 37 -1 82 -9 101 -19 141 -76
1306 -111 1693 -51 33 5 105 14 159 20 55 7 107 17 116 22 10 6 64 19 121 28
280 47 364 69 397 102 20 20 52 37 70 37 17 0 105 23 195 51 89 28 209 66 267
84 58 17 105 39 105 48 0 9 14 17 30 17 17 0 30 8 30 17 0 22 92 63 141 63 21
0 39 9 39 20 0 11 17 20 38 20 56 0 499 272 583 358 132 134 321 718 272 840
-17 43 -26 82 -20 88 6 6 -5 63 -25 128 -19 64 -36 122 -37 129 0 8 -8 20 -16
28 -8 9 -9 49 -2 90 18 113 -43 132 -333 106z m27 -337 c7 -60 25 -148 40
-195 121 -377 114 -581 -23 -685 -381 -290 -398 -298 -414 -195 -20 130 -122
597 -203 933 -58 237 -84 209 215 230 419 28 371 39 385 -88z m-839 -115 c19
-91 47 -219 62 -285 15 -66 47 -205 70 -310 24 -104 61 -260 83 -346 22 -86
37 -170 33 -186 -10 -49 -366 -196 -810 -336 -134 -41 -366 -93 -506 -113 -60
-8 -173 -26 -250 -40 -187 -34 -1210 -35 -1390 -1 -71 14 -188 32 -260 42
-246 31 -853 194 -1010 269 -55 27 -161 75 -235 109 -74 33 -135 68 -135 78 0
10 -73 79 -162 155 l-163 137 13 161 c35 469 52 503 248 508 74 2 258 14 410
26 302 25 310 23 277 -57 -13 -31 -37 -153 -53 -272 -17 -118 -38 -253 -48
-300 -87 -412 -74 -574 45 -574 109 0 112 10 203 658 17 114 39 240 50 280 11
40 20 119 20 176 0 57 7 108 16 114 15 9 548 53 1484 123 237 18 534 40 660
50 127 9 437 31 689 49 253 18 464 36 469 41 5 5 42 9 82 9 l73 0 35 -165z"/>
<path d="M2770 823 c-6 -16 -1 -36 11 -44 12 -7 23 -21 23 -31 2 -36 87 -107
127 -108 23 0 52 -11 65 -24 19 -19 24 -19 24 0 0 13 16 24 36 24 19 0 56 15
82 33 56 39 27 66 -70 67 -34 0 -113 25 -174 57 -94 47 -114 51 -124 26z"/>
</g>
</svg>
